<mxfile host="app.diagrams.net" modified="2021-08-25T08:50:05.391Z" agent="5.0 (Macintosh; Intel Mac OS X 10_15_6) AppleWebKit/537.36 (KHTML, like Gecko) Chrome/92.0.4515.159 Safari/537.36" etag="wZ0Ay0DfzuT4-xJPQjEJ" version="14.9.9" type="github">
  <diagram id="mvER2Ll2nmFlxeLM-Z8F" name="Page-1">
    <mxGraphModel dx="1037" dy="612" grid="0" gridSize="10" guides="1" tooltips="1" connect="1" arrows="1" fold="1" page="1" pageScale="1" pageWidth="827" pageHeight="1169" math="0" shadow="0">
      <root>
        <mxCell id="0" />
        <mxCell id="1" parent="0" />
        <mxCell id="MT-JqHP34Sfwq3to-S4T-1" value="" style="ellipse;html=1;shape=startState;fillColor=#000000;strokeColor=#ff0000;" vertex="1" parent="1">
          <mxGeometry x="384" y="10" width="30" height="30" as="geometry" />
        </mxCell>
        <mxCell id="MT-JqHP34Sfwq3to-S4T-2" value="" style="edgeStyle=orthogonalEdgeStyle;html=1;verticalAlign=bottom;endArrow=open;endSize=8;strokeColor=#ff0000;" edge="1" source="MT-JqHP34Sfwq3to-S4T-1" parent="1">
          <mxGeometry relative="1" as="geometry">
            <mxPoint x="399" y="100" as="targetPoint" />
          </mxGeometry>
        </mxCell>
        <mxCell id="MT-JqHP34Sfwq3to-S4T-14" value="" style="edgeStyle=orthogonalEdgeStyle;rounded=0;orthogonalLoop=1;jettySize=auto;html=1;" edge="1" parent="1" source="MT-JqHP34Sfwq3to-S4T-3" target="MT-JqHP34Sfwq3to-S4T-4">
          <mxGeometry relative="1" as="geometry" />
        </mxCell>
        <mxCell id="MT-JqHP34Sfwq3to-S4T-3" value="&lt;font style=&quot;font-size: 14px&quot;&gt;定位数据&lt;/font&gt;" style="rounded=1;whiteSpace=wrap;html=1;" vertex="1" parent="1">
          <mxGeometry x="339" y="100" width="120" height="60" as="geometry" />
        </mxCell>
        <mxCell id="MT-JqHP34Sfwq3to-S4T-4" value="海拔是否为0" style="rhombus;whiteSpace=wrap;html=1;fillColor=#ffffc0;strokeColor=#ff0000;" vertex="1" parent="1">
          <mxGeometry x="349" y="200" width="100" height="50" as="geometry" />
        </mxCell>
        <mxCell id="MT-JqHP34Sfwq3to-S4T-5" value="no" style="edgeStyle=orthogonalEdgeStyle;html=1;align=left;verticalAlign=bottom;endArrow=open;endSize=8;strokeColor=#ff0000;entryX=0;entryY=0.5;entryDx=0;entryDy=0;" edge="1" source="MT-JqHP34Sfwq3to-S4T-4" parent="1" target="MT-JqHP34Sfwq3to-S4T-15">
          <mxGeometry x="-1" relative="1" as="geometry">
            <mxPoint x="510" y="225" as="targetPoint" />
          </mxGeometry>
        </mxCell>
        <mxCell id="MT-JqHP34Sfwq3to-S4T-6" value="yes" style="edgeStyle=orthogonalEdgeStyle;html=1;align=left;verticalAlign=top;endArrow=open;endSize=8;strokeColor=#ff0000;entryX=0.5;entryY=0;entryDx=0;entryDy=0;" edge="1" source="MT-JqHP34Sfwq3to-S4T-4" parent="1" target="MT-JqHP34Sfwq3to-S4T-7">
          <mxGeometry x="-1" relative="1" as="geometry">
            <mxPoint x="399" y="290" as="targetPoint" />
          </mxGeometry>
        </mxCell>
        <mxCell id="MT-JqHP34Sfwq3to-S4T-7" value="海拔精度是否&lt;br&gt;为-1" style="rhombus;whiteSpace=wrap;html=1;fillColor=#ffffc0;strokeColor=#ff0000;" vertex="1" parent="1">
          <mxGeometry x="349" y="300" width="100" height="50" as="geometry" />
        </mxCell>
        <mxCell id="MT-JqHP34Sfwq3to-S4T-8" value="no" style="edgeStyle=orthogonalEdgeStyle;html=1;align=left;verticalAlign=bottom;endArrow=open;endSize=8;strokeColor=#ff0000;entryX=0.425;entryY=-0.033;entryDx=0;entryDy=0;entryPerimeter=0;" edge="1" parent="1" source="MT-JqHP34Sfwq3to-S4T-7" target="MT-JqHP34Sfwq3to-S4T-25">
          <mxGeometry x="-0.8182" y="-5" relative="1" as="geometry">
            <mxPoint x="240" y="410" as="targetPoint" />
            <mxPoint as="offset" />
          </mxGeometry>
        </mxCell>
        <mxCell id="MT-JqHP34Sfwq3to-S4T-9" value="yes" style="edgeStyle=orthogonalEdgeStyle;html=1;align=left;verticalAlign=top;endArrow=open;endSize=8;strokeColor=#ff0000;entryX=0.5;entryY=0;entryDx=0;entryDy=0;" edge="1" parent="1" source="MT-JqHP34Sfwq3to-S4T-7" target="MT-JqHP34Sfwq3to-S4T-11">
          <mxGeometry x="-1" relative="1" as="geometry">
            <mxPoint x="399" y="390" as="targetPoint" />
          </mxGeometry>
        </mxCell>
        <mxCell id="MT-JqHP34Sfwq3to-S4T-30" value="" style="edgeStyle=orthogonalEdgeStyle;rounded=0;orthogonalLoop=1;jettySize=auto;html=1;" edge="1" parent="1" source="MT-JqHP34Sfwq3to-S4T-11" target="MT-JqHP34Sfwq3to-S4T-23">
          <mxGeometry relative="1" as="geometry" />
        </mxCell>
        <mxCell id="MT-JqHP34Sfwq3to-S4T-11" value="&lt;span style=&quot;font-size: 14px&quot;&gt;借助电脑实现的虚拟定位数据&lt;/span&gt;" style="rounded=1;whiteSpace=wrap;html=1;" vertex="1" parent="1">
          <mxGeometry x="339" y="400" width="121" height="60" as="geometry" />
        </mxCell>
        <mxCell id="MT-JqHP34Sfwq3to-S4T-15" value="海拔小数点位数&lt;br&gt;是否小于10" style="rhombus;whiteSpace=wrap;html=1;fillColor=#ffffc0;strokeColor=#ff0000;" vertex="1" parent="1">
          <mxGeometry x="510" y="200" width="100" height="50" as="geometry" />
        </mxCell>
        <mxCell id="MT-JqHP34Sfwq3to-S4T-16" value="no" style="edgeStyle=orthogonalEdgeStyle;html=1;align=left;verticalAlign=bottom;endArrow=open;endSize=8;strokeColor=#ff0000;" edge="1" parent="1" source="MT-JqHP34Sfwq3to-S4T-15">
          <mxGeometry x="-1" relative="1" as="geometry">
            <mxPoint x="671" y="400" as="targetPoint" />
          </mxGeometry>
        </mxCell>
        <mxCell id="MT-JqHP34Sfwq3to-S4T-17" value="yes" style="edgeStyle=orthogonalEdgeStyle;html=1;align=left;verticalAlign=top;endArrow=open;endSize=8;strokeColor=#ff0000;entryX=0.5;entryY=0;entryDx=0;entryDy=0;" edge="1" parent="1" source="MT-JqHP34Sfwq3to-S4T-15">
          <mxGeometry x="-1" relative="1" as="geometry">
            <mxPoint x="560" y="300" as="targetPoint" />
          </mxGeometry>
        </mxCell>
        <mxCell id="MT-JqHP34Sfwq3to-S4T-18" value="经纬度小数点位数&lt;br&gt;是否小于10" style="rhombus;whiteSpace=wrap;html=1;fillColor=#ffffc0;strokeColor=#ff0000;" vertex="1" parent="1">
          <mxGeometry x="510" y="300" width="100" height="50" as="geometry" />
        </mxCell>
        <mxCell id="MT-JqHP34Sfwq3to-S4T-19" value="no" style="edgeStyle=orthogonalEdgeStyle;html=1;align=left;verticalAlign=bottom;endArrow=open;endSize=8;strokeColor=#ff0000;entryX=0.25;entryY=0;entryDx=0;entryDy=0;" edge="1" parent="1" source="MT-JqHP34Sfwq3to-S4T-18" target="MT-JqHP34Sfwq3to-S4T-28">
          <mxGeometry x="-1" relative="1" as="geometry">
            <mxPoint x="671" y="325" as="targetPoint" />
          </mxGeometry>
        </mxCell>
        <mxCell id="MT-JqHP34Sfwq3to-S4T-20" value="yes" style="edgeStyle=orthogonalEdgeStyle;html=1;align=left;verticalAlign=top;endArrow=open;endSize=8;strokeColor=#ff0000;entryX=0.5;entryY=0;entryDx=0;entryDy=0;" edge="1" parent="1" source="MT-JqHP34Sfwq3to-S4T-18">
          <mxGeometry x="-1" relative="1" as="geometry">
            <mxPoint x="560" y="400" as="targetPoint" />
          </mxGeometry>
        </mxCell>
        <mxCell id="MT-JqHP34Sfwq3to-S4T-31" value="" style="edgeStyle=orthogonalEdgeStyle;rounded=0;orthogonalLoop=1;jettySize=auto;html=1;entryX=0.5;entryY=0;entryDx=0;entryDy=0;" edge="1" parent="1" source="MT-JqHP34Sfwq3to-S4T-22" target="MT-JqHP34Sfwq3to-S4T-23">
          <mxGeometry relative="1" as="geometry">
            <Array as="points">
              <mxPoint x="550" y="500" />
              <mxPoint x="399" y="500" />
            </Array>
          </mxGeometry>
        </mxCell>
        <mxCell id="MT-JqHP34Sfwq3to-S4T-22" value="&lt;span style=&quot;font-size: 14px&quot;&gt;外置定位器虚拟定位数据&lt;/span&gt;" style="rounded=1;whiteSpace=wrap;html=1;" vertex="1" parent="1">
          <mxGeometry x="490" y="400" width="120" height="60" as="geometry" />
        </mxCell>
        <mxCell id="MT-JqHP34Sfwq3to-S4T-23" value="" style="ellipse;html=1;shape=endState;fillColor=#000000;strokeColor=#ff0000;" vertex="1" parent="1">
          <mxGeometry x="384" y="540" width="30" height="30" as="geometry" />
        </mxCell>
        <mxCell id="MT-JqHP34Sfwq3to-S4T-24" value="" style="edgeStyle=elbowEdgeStyle;rounded=0;orthogonalLoop=1;jettySize=auto;html=1;elbow=vertical;" edge="1" parent="1" source="MT-JqHP34Sfwq3to-S4T-25" target="MT-JqHP34Sfwq3to-S4T-23">
          <mxGeometry relative="1" as="geometry">
            <mxPoint x="250" y="500" as="targetPoint" />
          </mxGeometry>
        </mxCell>
        <mxCell id="MT-JqHP34Sfwq3to-S4T-25" value="&lt;span style=&quot;font-size: 14px&quot;&gt;正常定位数据&lt;/span&gt;" style="rounded=1;whiteSpace=wrap;html=1;" vertex="1" parent="1">
          <mxGeometry x="190" y="400" width="120" height="60" as="geometry" />
        </mxCell>
        <mxCell id="MT-JqHP34Sfwq3to-S4T-27" value="" style="edgeStyle=orthogonalEdgeStyle;rounded=0;orthogonalLoop=1;jettySize=auto;html=1;" edge="1" parent="1" source="MT-JqHP34Sfwq3to-S4T-28">
          <mxGeometry relative="1" as="geometry">
            <mxPoint x="400" y="540" as="targetPoint" />
            <Array as="points">
              <mxPoint x="700" y="500" />
              <mxPoint x="400" y="500" />
            </Array>
          </mxGeometry>
        </mxCell>
        <mxCell id="MT-JqHP34Sfwq3to-S4T-28" value="&lt;span style=&quot;font-size: 14px&quot;&gt;正常定位数据&lt;/span&gt;" style="rounded=1;whiteSpace=wrap;html=1;" vertex="1" parent="1">
          <mxGeometry x="640" y="400" width="120" height="60" as="geometry" />
        </mxCell>
      </root>
    </mxGraphModel>
  </diagram>
</mxfile>
